<svg width="147" height="98" viewBox="-12 0 147 98" fill="none" xmlns="http://www.w3.org/2000/svg">
<path fill-rule="evenodd" clip-rule="evenodd" d="M34.5908 1.41537C3.39775 11.3224 -9.72325 47.3284 7.91475 74.6174C19.6648 92.7964 43.3938 100.529 60.5588 91.7724C62.7768 90.6414 67.6707 86.7454 71.4347 83.1134L78.2788 76.5114L59.9347 76.0054C38.7287 75.4194 35.1898 74.3384 28.0978 66.2814C18.3828 55.2454 19.0907 39.1244 29.7517 28.6134C37.0137 21.4544 39.3467 21.0114 69.8077 21.0114H96.1688L106.88 11.3374C112.771 6.01736 118.018 1.29237 118.541 0.837365C120.194 -0.599635 39.1808 -0.0426319 34.5908 1.41537ZM75.3438 38.3544C71.6298 41.8434 67.0158 46.1054 65.0908 47.8254L61.5908 50.9524L88.3408 50.9824C103.733 50.9994 115.091 51.3984 115.091 51.9214C115.091 52.4224 104.853 62.7664 92.3408 74.9084L69.5908 96.9844L85.0987 96.9974L100.607 97.0114L123.585 74.0174L146.563 51.0234L137.097 41.5174L127.631 32.0114H104.864H82.0978L75.3438 38.3544Z" fill="url(#paint0_linear_3478_373)"/>
<defs>
<linearGradient id="paint0_linear_3478_373" x1="0" y1="0" x2="89.3007" y2="134.914" gradientUnits="userSpaceOnUse">
<stop stop-color="#3B82F6"/>
<stop offset="1" stop-color="#10B981"/>
</linearGradient>
</defs>
</svg>
