<svg width="17" height="18" viewBox="0 0 17 18" fill="none" xmlns="http://www.w3.org/2000/svg">
<path d="M8.37915 7.36362V10.8491H12.8887C12.6907 11.97 12.0965 12.9191 11.2052 13.5573L13.9247 15.8237C15.5091 14.2528 16.4232 11.9455 16.4232 9.20461C16.4232 8.56644 16.3699 7.95275 16.2709 7.36371L8.37915 7.36362Z" fill="#4285F4"/>
<path d="M3.68318 10.713L3.06984 11.2173L0.898804 13.0336C2.27758 15.9709 5.10348 18 8.37901 18C10.6414 18 12.5381 17.1982 13.9245 15.8237L11.2051 13.5573C10.4586 14.0973 9.50636 14.4246 8.37901 14.4246C6.2004 14.4246 4.34939 12.8455 3.68661 10.7182L3.68318 10.713Z" fill="#34A853"/>
<path d="M0.898807 4.96634C0.327521 6.1772 0 7.54358 0 8.99991C0 10.4562 0.327521 11.8226 0.898807 13.0335C0.898807 13.0416 3.68688 10.7099 3.68688 10.7099C3.5193 10.1699 3.42024 9.59717 3.42024 8.99982C3.42024 8.40247 3.5193 7.82978 3.68688 7.28978L0.898807 4.96634Z" fill="#FBBC05"/>
<path d="M8.37918 3.58363C9.61324 3.58363 10.7102 4.0418 11.5862 4.92544L13.9857 2.34821C12.5307 0.891872 10.6416 0 8.37918 0C5.10366 0 2.27758 2.0209 0.898804 4.96636L3.68679 7.29C4.34948 5.1627 6.20057 3.58363 8.37918 3.58363Z" fill="#EA4335"/>
</svg>
